<svg width="34" height="32" viewBox="0 0 34 32" fill="none" xmlns="http://www.w3.org/2000/svg">
<path d="M17.5923 1.47737L17.5931 1.47896L21.3429 9.01458L21.3429 9.01459L21.3459 9.02059C21.7687 9.85604 22.5753 10.4378 23.5088 10.5684C23.5101 10.5686 23.5114 10.5688 23.5126 10.569L31.9286 11.7947L31.9337 11.7954C32.1668 11.8282 32.3764 11.9509 32.517 12.1356L32.5175 12.1362C32.6522 12.3128 32.7099 12.5366 32.6772 12.7559L32.6768 12.7588C32.6496 12.9453 32.5619 13.1191 32.4266 13.2529C32.4259 13.2536 32.4253 13.2542 32.4246 13.2549L26.3338 19.159C25.6412 19.8057 25.3305 20.7576 25.4975 21.6844L25.4976 21.6848L26.998 29.9902C27.0673 30.4529 26.7643 30.8861 26.3088 30.981C26.1169 31.0085 25.9166 30.9758 25.7361 30.8848L18.2277 26.9729L18.2278 26.9728L18.2162 26.967C17.3753 26.5426 16.3822 26.5426 15.5413 26.967L15.5412 26.9669L15.5298 26.9729L8.01657 30.8873L8.01656 30.8873L8.00952 30.891C7.56924 31.1249 7.02662 30.9697 6.77623 30.5424C6.69319 30.3777 6.66271 30.1908 6.68917 30.0062L8.18915 21.7017C8.18915 21.7017 8.18916 21.7017 8.18917 21.7016C8.35663 20.7749 8.0429 19.8203 7.35339 19.1747L1.25696 13.2684L1.25572 13.2672C0.927568 12.9503 0.917175 12.4323 1.22747 12.1041L1.26835 12.0632L1.26837 12.0632L1.27444 12.057C1.40487 11.9243 1.57566 11.8404 1.76069 11.8184L1.77384 11.8168L1.78695 11.8149L10.2058 10.5871C10.2065 10.587 10.2072 10.5869 10.2079 10.5868C11.136 10.4546 11.9438 9.87869 12.3694 9.03741L12.3744 9.0276L12.3792 9.01768L15.9904 1.47325C16.1402 1.17719 16.4473 0.992446 16.7822 1.00024L16.7938 1.00051H16.8055H16.9596C17.2308 1.04885 17.467 1.22438 17.5923 1.47737Z" stroke="#FFCE4C" stroke-width="2"/>
<path d="M16.8306 27.6499C16.5044 27.66 16.1865 27.7476 15.9007 27.9044L8.42422 31.8099C7.50942 32.2465 6.41469 31.9077 5.9018 31.0329C5.71178 30.6755 5.64283 30.2659 5.70673 29.8647L7.2 21.5632C7.3009 20.9598 7.09911 20.3462 6.66021 19.9214L0.554268 14.0101C-0.170507 13.3004 -0.18396 12.1357 0.525681 11.4092C0.535771 11.3991 0.544179 11.3907 0.554268 11.3822C0.843506 11.0957 1.21682 10.9069 1.61873 10.8479L10.0487 9.6073C10.6591 9.52976 11.1888 9.14882 11.4578 8.59594L15.1221 0.94841C15.4702 0.331483 16.1378 -0.0359764 16.8441 0.0027922C16.8306 0.503413 16.8306 27.3094 16.8306 27.6499Z" fill="#FFCE4C"/>
</svg>
