<svg width="36" height="37" viewBox="0 0 36 37" fill="none" xmlns="http://www.w3.org/2000/svg">
<path opacity="0.4" d="M16.408 37.006L1.12402 30.0587C-0.338218 29.394 -0.338215 27.3171 1.12403 26.6524L16.408 19.7051C17.3918 19.258 18.5209 19.258 19.5047 19.7051L34.7886 26.6524C36.2509 27.3171 36.2509 29.394 34.7886 30.0587L19.5047 37.006C18.5209 37.4531 17.3918 37.4531 16.408 37.006Z" fill="#FF792F"/>
<path d="M16.408 27.652L1.12402 20.7047C-0.338218 20.04 -0.338215 17.963 1.12403 17.2984L16.408 10.3511C17.3918 9.90395 18.5209 9.90395 19.5047 10.3511L34.7886 17.2984C36.2509 17.963 36.2509 20.04 34.7886 20.7047L19.5047 27.652C18.5209 28.0991 17.3918 28.0991 16.408 27.652Z" fill="#FF792F"/>
<path opacity="0.4" d="M16.408 18.2977L1.12402 11.3504C-0.338218 10.6858 -0.338215 8.6088 1.12403 7.94415L16.408 0.996879C17.3918 0.549705 18.5209 0.549706 19.5047 0.996879L34.7886 7.94415C36.2509 8.6088 36.2509 10.6858 34.7886 11.3504L19.5047 18.2977C18.5209 18.7449 17.3918 18.7449 16.408 18.2977Z" fill="#FF792F"/>
</svg>
