<svg width="31" height="30" viewBox="0 0 31 30" fill="none" xmlns="http://www.w3.org/2000/svg">
<path d="M21.1144 1H26.1934C28.2968 1 30.0012 2.71878 30.0012 4.83994V9.96179C30.0012 12.083 28.2968 13.8017 26.1934 13.8017H21.1144C19.011 13.8017 17.3066 12.083 17.3066 9.96179V4.83994C17.3066 2.71878 19.011 1 21.1144 1Z" fill="#FFCE4C"/>
<path d="M8.88869 18.1983C10.4319 18.1983 11.6965 19.4614 11.6965 21.0382V26.1601C11.6965 27.7357 10.4317 29 8.88869 29H3.80974C2.26678 29 1.00195 27.7357 1.00195 26.1601V21.0382C1.00195 19.4614 2.26653 18.1983 3.80974 18.1983H8.88869ZM26.1942 18.1983C27.7374 18.1983 29.002 19.4614 29.002 21.0382V26.1601C29.002 27.7357 27.7371 29 26.1942 29H21.1152C19.5723 29 18.3074 27.7357 18.3074 26.1601V21.0382C18.3074 19.4614 19.572 18.1983 21.1152 18.1983H26.1942ZM8.88869 1C10.4319 1 11.6965 2.26312 11.6965 3.83994V8.96179C11.6965 10.5386 10.4319 11.8017 8.88869 11.8017H3.80974C2.26653 11.8017 1.00195 10.5386 1.00195 8.96179V3.83994C1.00195 2.26312 2.26653 1 3.80974 1H8.88869Z" stroke="#FFCE4C" stroke-width="2"/>
</svg>
