<svg width="46" height="46" viewBox="0 0 46 46" fill="none" xmlns="http://www.w3.org/2000/svg">
<path d="M20.375 37.4375H2" stroke="black" stroke-width="4" stroke-linecap="round" stroke-linejoin="round"/>
<path fill-rule="evenodd" clip-rule="evenodd" d="M44 37.4375C44 41.0619 41.0619 44 37.4375 44C33.8131 44 30.875 41.0619 30.875 37.4375C30.875 33.8104 33.8131 30.875 37.4375 30.875C41.0619 30.875 44 33.8104 44 37.4375Z" stroke="#FBD03A" stroke-width="4" stroke-linecap="round" stroke-linejoin="round"/>
<path d="M25.625 8.5625H44" stroke="black" stroke-width="4" stroke-linecap="round" stroke-linejoin="round"/>
<path fill-rule="evenodd" clip-rule="evenodd" d="M2 8.5625C2 12.1896 4.93811 15.125 8.5625 15.125C12.1869 15.125 15.125 12.1896 15.125 8.5625C15.125 4.93811 12.1869 2 8.5625 2C4.93811 2 2 4.93811 2 8.5625Z" stroke="#FBD03A" stroke-width="4" stroke-linecap="round" stroke-linejoin="round"/>
</svg>
