<svg width="42" height="52" viewBox="0 0 42 52" fill="none" xmlns="http://www.w3.org/2000/svg">
<path d="M1.95173 23.5132C1.31414 23.6871 0.692035 24.1041 0.338392 24.7228C-0.368893 25.9601 0.0699335 27.5637 1.30639 28.2707L19.3757 38.5919C20.1682 39.0452 21.162 39.0452 21.9571 38.5919L40.0264 28.2707C41.2654 27.5637 41.7017 25.9601 40.9944 24.7228C40.2871 23.4856 38.6841 23.0482 37.4451 23.7552L20.6664 33.3508L3.88772 23.7552C3.26821 23.4017 2.58931 23.3395 1.95173 23.5132ZM1.95173 36.4146C1.31414 36.5885 0.692035 37.0055 0.338392 37.6243C-0.368893 38.8615 0.0699335 40.4652 1.30639 41.1722L19.3757 51.4933C20.1682 51.9467 21.162 51.9467 21.9571 51.4933L40.0264 41.1722C41.2654 40.4652 41.7017 38.8615 40.9944 37.6243C40.2871 36.387 38.6841 35.9497 37.4451 36.6567L20.6664 46.2523L3.88772 36.6567C3.26821 36.3032 2.58931 36.241 1.95173 36.4146Z" fill="black"/>
<path d="M19.3742 0.506645L1.3049 10.826C-0.429758 11.8164 -0.429758 14.3503 1.3049 15.3407C3.56356 16.6306 17.1156 24.3701 19.3742 25.6601C20.1667 26.1133 21.1605 26.1133 21.9556 25.6601L40.0249 15.3407C41.7595 14.3503 41.7595 11.8164 40.0249 10.826L21.9556 0.506645C21.1631 0.0533677 20.1693 0.0533677 19.3742 0.506645ZM20.6649 5.74681L33.4915 13.0834L20.6649 20.4199C18.001 18.8983 12.1827 15.5646 7.83827 13.0834L20.6649 5.74681Z" fill="#FFD338"/>
</svg>
