<svg width="53" height="53" viewBox="0 0 53 53" fill="none" xmlns="http://www.w3.org/2000/svg">
<path fill-rule="evenodd" clip-rule="evenodd" d="M2.125 11.6042C2.125 4.49421 2.20113 2.125 11.6042 2.125C21.0072 2.125 21.0833 4.49421 21.0833 11.6042C21.0833 18.7141 21.1133 21.0833 11.6042 21.0833C2.09501 21.0833 2.125 18.7141 2.125 11.6042Z" stroke="#FF287B" stroke-width="3" stroke-linecap="round" stroke-linejoin="round"/>
<path fill-rule="evenodd" clip-rule="evenodd" d="M31.917 11.6042C31.917 4.49421 31.9931 2.125 41.3962 2.125C50.7992 2.125 50.8753 4.49421 50.8753 11.6042C50.8753 18.7141 50.9053 21.0833 41.3962 21.0833C31.887 21.0833 31.917 18.7141 31.917 11.6042Z" stroke="#E4E9EA" stroke-width="3" stroke-linecap="round" stroke-linejoin="round"/>
<path fill-rule="evenodd" clip-rule="evenodd" d="M2.125 41.3959C2.125 34.286 2.20113 31.9167 11.6042 31.9167C21.0072 31.9167 21.0833 34.286 21.0833 41.3959C21.0833 48.5059 21.1133 50.8751 11.6042 50.8751C2.09501 50.8751 2.125 48.5059 2.125 41.3959Z" stroke="#FFBD1F" stroke-width="3" stroke-linecap="round" stroke-linejoin="round"/>
<path fill-rule="evenodd" clip-rule="evenodd" d="M31.917 41.3959C31.917 34.286 31.9931 31.9167 41.3962 31.9167C50.7992 31.9167 50.8753 34.286 50.8753 41.3959C50.8753 48.5059 50.9053 50.8751 41.3962 50.8751C31.887 50.8751 31.917 48.5059 31.917 41.3959Z" stroke="#15EA84" stroke-width="3" stroke-linecap="round" stroke-linejoin="round"/>
</svg>
