<svg width="58" height="58" viewBox="0 0 58 58" fill="none" xmlns="http://www.w3.org/2000/svg">
<path fill-rule="evenodd" clip-rule="evenodd" d="M48.4462 48.4421C40.0418 56.8474 27.5969 58.6634 17.4126 53.9535C15.9092 53.3482 14.6766 52.859 13.5048 52.859C10.2408 52.8783 6.1782 56.0431 4.06674 53.9342C1.95527 51.8225 5.12247 47.7566 5.12247 44.473C5.12247 43.3011 4.65264 42.0904 4.04739 40.5841C-0.664715 30.4015 1.1538 17.9524 9.55821 9.54982C20.2869 -1.18281 37.7175 -1.18281 48.4462 9.54705C59.1943 20.2963 59.1749 37.7123 48.4462 48.4421Z" stroke="#E4E9EA" stroke-width="3" stroke-linecap="round" stroke-linejoin="round"/>
<path d="M41.208 28.7607H41.2309" stroke="#EA075F" stroke-width="6" stroke-linecap="round" stroke-linejoin="round"/>
<path d="M28.8076 28.7607H28.8305" stroke="#15EA84" stroke-width="6" stroke-linecap="round" stroke-linejoin="round"/>
<path d="M16.4092 28.7607H16.4321" stroke="#FFBD1F" stroke-width="6" stroke-linecap="round" stroke-linejoin="round"/>
</svg>
