<svg width="51" height="39" viewBox="0 0 51 39" fill="none" xmlns="http://www.w3.org/2000/svg">
<path fill-rule="evenodd" clip-rule="evenodd" d="M7.26452 11.8327C7.64557 8.19042 10.852 5.41669 14.6814 5.41669H36.4469C40.2763 5.41669 43.4827 8.19042 43.8637 11.8327L44.7373 20.1828C47.8079 21.2712 50.0605 23.9697 50.3729 27.2055C50.4116 26.9958 50.4212 26.7777 50.398 26.5554L48.8083 11.3601C48.1732 5.28956 42.8293 0.666687 36.4469 0.666687H14.6814C8.299 0.666687 2.95502 5.28957 2.31995 11.3601L0.73029 26.5554C0.707086 26.7772 0.716596 26.9949 0.755071 27.2042C1.06802 23.9688 3.32064 21.2708 6.39099 20.1827L7.26452 11.8327Z" fill="black"/>
<path fill-rule="evenodd" clip-rule="evenodd" d="M0.717773 27.9792C0.717773 23.3883 4.61118 19.6667 9.41393 19.6667H41.714C46.5167 19.6667 50.4101 23.3883 50.4101 27.9792V30.3542C50.4101 34.9451 46.5167 38.6667 41.714 38.6667H9.41393C4.61118 38.6667 0.717773 34.9451 0.717773 30.3542V27.9792ZM9.41393 24.4167C7.35561 24.4167 5.68701 26.0117 5.68701 27.9792V30.3542C5.68701 32.3217 7.35561 33.9167 9.41393 33.9167H41.714C43.7723 33.9167 45.4409 32.3217 45.4409 30.3542V27.9792C45.4409 26.0117 43.7723 24.4167 41.714 24.4167H9.41393ZM13.1409 29.1667C13.1409 30.4784 12.0285 31.5417 10.6562 31.5417C9.28403 31.5417 8.17162 30.4784 8.17162 29.1667C8.17162 27.855 9.28403 26.7917 10.6562 26.7917C12.0285 26.7917 13.1409 27.855 13.1409 29.1667ZM18.1101 31.5417C19.4823 31.5417 20.5947 30.4784 20.5947 29.1667C20.5947 27.855 19.4823 26.7917 18.1101 26.7917C16.7379 26.7917 15.6255 27.855 15.6255 29.1667C15.6255 30.4784 16.7379 31.5417 18.1101 31.5417Z" fill="black"/>
<ellipse cx="10.9142" cy="29.2485" rx="2.82732" ry="2.70259" fill="#FFD338"/>
<ellipse cx="18.1105" cy="29.2485" rx="2.82732" ry="2.70259" fill="#FFD338"/>
</svg>
