<svg width="36" height="39" viewBox="0 0 36 39" fill="none" xmlns="http://www.w3.org/2000/svg">
<path fill-rule="evenodd" clip-rule="evenodd" d="M9.6665 0.291626C10.4259 0.291626 11.0415 0.907234 11.0415 1.66663V7.16663C11.0415 7.92602 10.4259 8.54163 9.6665 8.54163C8.90711 8.54163 8.2915 7.92602 8.2915 7.16663V1.66663C8.2915 0.907234 8.90711 0.291626 9.6665 0.291626Z" fill="#6ABD00"/>
<path fill-rule="evenodd" clip-rule="evenodd" d="M24.3335 0.291626C25.0929 0.291626 25.7085 0.907234 25.7085 1.66663V7.16663C25.7085 7.92602 25.0929 8.54163 24.3335 8.54163C23.5741 8.54163 22.9585 7.92602 22.9585 7.16663V1.66663C22.9585 0.907234 23.5741 0.291626 24.3335 0.291626Z" fill="#6ABD00"/>
<path opacity="0.4" d="M0.5 11.75C0.5 7.69987 3.78325 4.41663 7.83333 4.41663H26.1667C30.2168 4.41663 33.5 7.69987 33.5 11.75V31C33.5 35.05 30.2168 38.3333 26.1667 38.3333H7.83333C3.78325 38.3333 0.5 35.05 0.5 31V11.75Z" fill="#6ABD00"/>
<path d="M30.0951 20.8988C31.2935 19.7004 33.2364 19.7004 34.4347 20.8988C35.6331 22.0971 35.6331 24.04 34.4347 25.2384L25.2409 34.4322C25.0197 34.6534 24.7457 34.8145 24.4449 34.9003L19.6978 36.2536C19.3208 36.3611 18.9724 36.0127 19.0799 35.6357L20.4332 30.8886C20.519 30.5878 20.6801 30.3138 20.9013 30.0926L30.0951 20.8988Z" fill="#6ABD00"/>
</svg>
