<svg width="50" height="42" viewBox="0 0 50 42" fill="none" xmlns="http://www.w3.org/2000/svg">
<path d="M7.49479 0C3.40156 0 0.0839844 3.31782 0.0839844 7.41081V24.7027C0.0839844 28.7957 3.40156 32.1135 7.49479 32.1135C12.4004 32.1135 39.5733 32.1135 42.0786 32.1135C46.1718 32.1135 49.4894 28.7957 49.4894 24.7027V7.41081C49.4894 3.31782 46.1718 0 42.0786 0H7.49479ZM7.49479 4.94054H42.0786C43.4422 4.94054 44.5488 6.04648 44.5488 7.41081V24.7027C44.5488 26.067 43.4422 27.173 42.0786 27.173H7.49479C6.1312 27.173 5.02452 26.067 5.02452 24.7027V7.41081C5.02452 6.04648 6.1312 4.94054 7.49479 4.94054Z" fill="black"/>
<path fill-rule="evenodd" clip-rule="evenodd" d="M27.2572 37.0596V32.119H22.3166V37.0596H14.9058C13.5415 37.0596 12.4355 38.1655 12.4355 39.5298C12.4355 40.8941 13.5415 42.0001 14.9058 42.0001H34.668C36.0323 42.0001 37.1382 40.8941 37.1382 39.5298C37.1382 38.1655 36.0323 37.0596 34.668 37.0596H27.2572Z" fill="#FFD338"/>
</svg>
