<svg width="36" height="36" viewBox="0 0 36 36" fill="none" xmlns="http://www.w3.org/2000/svg">
<path d="M34.8284 1.17157C33.1217 2.8781 17.1788 18.8214 14.387 21.6133C10.6878 21.0386 6.90207 20.6236 3.23043 19.9258C1.48643 19.5943 3.28745e-06 18.0157 0 16.0001C0.000253429 14.5949 0.742002 13.2569 1.97629 12.5385C2.04982 12.4957 2.21477 12.415 2.46003 12.301C2.46003 12.301 30.2141 0.411752 30.4922 0.296532C30.7879 0.174012 31.2467 0.0711535 31.2467 0.0711535C32.5043 -0.168765 33.8548 0.198041 34.8284 1.17157Z" fill="#7E42FF"/>
<path d="M34.8191 1.17188C33.1126 2.87851 17.1693 18.8215 14.3774 21.6132C14.9521 25.3124 15.3671 29.0982 16.0649 32.7698C16.3964 34.5138 17.975 36.0002 19.9906 36.0003C21.3958 36 22.7339 35.2583 23.4522 34.024C23.495 33.9504 23.5757 33.7855 23.6897 33.5402C23.6897 33.5402 35.579 5.78617 35.6942 5.50808C35.8167 5.21237 35.9196 4.75351 35.9196 4.75351C36.1595 3.49591 35.7927 2.14541 34.8191 1.17188Z" fill="#E1D3FF"/>
</svg>
