<svg width="246" height="27" viewBox="0 0 246 27" fill="none" xmlns="http://www.w3.org/2000/svg">
<path opacity="0.827996" fill-rule="evenodd" clip-rule="evenodd" d="M244.673 25.1957C244.424 25.8075 241.585 26.7904 241.401 26.3442C241.301 26.1039 240.948 26.0026 240.604 26.1194C239.927 26.3285 237.132 26.0304 234.553 25.478C233.676 25.2775 231.141 24.9286 228.889 24.6808C226.636 24.4329 223.235 24.0305 221.252 23.7784C219.313 23.5583 217.261 23.3354 216.744 23.3244C216.051 23.2983 215.96 23.1756 216.362 22.8115C216.676 22.5257 216.462 22.5668 215.904 22.8962C215.335 23.2207 214.813 23.2929 214.742 23.0502C214.645 22.8393 214.297 22.7258 213.941 22.8377C213.598 22.9544 211.948 22.8526 210.242 22.6134C208.543 22.3914 206.615 22.1761 205.921 22.15C205.257 22.1215 203.067 21.9277 201.11 21.7149C194.018 20.9633 187.82 20.4048 182.682 20.0791C179.813 19.8936 177.164 19.684 176.861 19.6318C176.534 19.5698 175.916 19.5316 175.522 19.5282C173.765 19.5535 162.916 18.9253 161.853 18.7341C161.199 18.6101 160.434 18.5838 160.13 18.6737C158.788 19.0258 153.924 18.5832 153.24 18.0475C152.429 17.4455 152.179 15.9163 152.928 16.2218C153.182 16.3253 153.326 16.213 153.269 15.9042C153.128 15.0048 163.971 14.8883 164.908 15.77C165.191 16.0425 165.38 16.0626 165.339 15.8175C165.255 15.298 183.841 16.0278 184.219 16.5529C184.401 16.7983 184.667 16.8356 184.907 16.6623C185.286 16.3888 197.565 17.1723 204.905 17.9392C206.483 18.1119 209.289 18.3145 211.15 18.4169C213.016 18.507 214.97 18.7615 215.513 18.9832C216.069 19.2099 216.71 19.2286 216.972 19.0357C217.234 18.8428 217.665 18.8903 217.953 19.1507C218.237 19.4232 218.548 19.4215 218.657 19.1523C218.757 18.9076 219.063 18.9181 219.358 19.1956C219.642 19.4682 220.036 19.572 220.237 19.4255C220.438 19.279 221.811 19.368 223.313 19.6238C224.808 19.8625 226.91 20.1345 228.006 20.2106C232.282 20.5416 235.887 21.1698 236.226 21.6507C236.456 21.9869 236.539 21.9209 236.452 21.4431C236.368 20.9235 236.507 20.8945 236.944 21.2727C237.271 21.5773 237.612 21.6736 237.687 21.4901C237.767 21.2943 238.523 21.203 239.396 21.2736C240.264 21.3565 241.813 21.7742 242.878 22.2372C244.579 22.9737 244.747 23.1847 244.378 24.0192C244.156 24.5282 244.167 24.9177 244.398 24.8692C244.665 24.8356 244.768 24.9632 244.673 25.1957ZM188.045 9.20388C189.499 9.14682 189.916 9.31694 189.351 9.7213C189.11 9.92553 188.473 9.90778 187.951 9.67966C187.054 9.28346 187.064 9.25754 188.045 9.20388ZM194.634 7.62273C194.855 7.71279 194.547 7.90497 193.903 8.08076C193.282 8.23563 192.754 8.23198 192.684 8.05231C192.552 7.71094 194.027 7.39051 194.634 7.62273ZM206.213 10.4058C206.446 10.5009 206.859 10.9264 207.115 11.3178C207.358 11.7042 207.384 11.9567 207.138 11.8566C206.917 11.7665 206.487 11.3489 206.231 10.9575C205.988 10.5711 205.98 10.3107 206.213 10.4058ZM211.156 11.26C211.613 11.6128 212.172 11.7501 212.39 11.5668C212.638 11.3806 212.976 11.3221 213.234 11.4272C213.467 11.5223 213.237 11.8063 212.752 12.0472C211.646 12.5486 210.542 12.2041 210.426 11.295C210.346 10.824 210.567 10.8083 211.156 11.26ZM176.332 8.95772C176.588 9.06196 176.599 9.27916 176.353 9.46288C176.125 9.63939 176.211 9.91568 176.564 10.0596C177.428 10.4121 178.128 9.84606 177.558 9.25901C177.316 9.01822 177.806 9.10458 178.633 9.44213C180.349 10.1421 181.302 10.3463 182.251 10.1797C182.629 10.1213 183.06 10.2829 183.278 10.5845C183.527 10.9132 183.613 10.8772 183.55 10.44C183.397 9.52651 185.389 9.06218 185.838 9.91187C186.079 10.3649 186.903 10.5024 188.659 10.4097C191.24 10.2422 192.359 10.4574 192.544 11.1857C192.68 11.7234 194.283 11.7955 194.496 11.2725C194.586 11.0535 194.492 10.8308 194.236 10.7266C194.017 10.6372 194.008 10.2078 194.238 9.74828C194.535 9.15993 194.75 9.11996 195.005 9.60724C195.198 9.96966 195.246 10.4433 195.093 10.6789C194.44 11.6185 195.677 11.754 196.64 10.8555L197.684 9.86252L198.094 11.2219C198.317 11.9651 198.588 12.3451 198.692 12.0897C198.801 11.8221 199.226 11.7543 199.664 11.933C200.869 12.4244 201.316 12.025 200.882 10.8265C200.388 9.4617 200.844 9.56246 201.428 10.9498C201.907 12.0388 203.877 12.9845 205.307 12.7871C205.832 12.7175 206.05 12.5653 205.775 12.439C205.5 12.3127 205.303 11.8917 205.313 11.4843C205.328 10.994 205.507 10.9392 205.912 11.3031C206.339 11.7183 206.493 11.6535 206.502 11.0754C206.514 10.6266 206.785 10.3113 207.168 10.3115C207.588 10.3266 207.649 10.6637 207.345 11.235C206.604 12.6351 206.716 13.3336 207.688 13.2477C208.174 13.2047 209.465 13.3478 210.515 13.5918C211.582 13.8286 212.776 13.8613 213.165 13.6371C213.533 13.4323 214.113 13.4704 214.373 13.704C214.633 13.9376 215.126 13.9825 215.4 13.7966C215.763 13.5332 215.951 13.5954 216.011 14.0033C216.082 14.3868 216.523 14.5241 217.478 14.4453C218.467 14.3522 218.903 14.5016 219.105 14.9812C219.326 15.4829 219.453 15.5203 219.612 15.1311C219.726 14.8513 220.136 14.7493 220.526 14.9081C220.915 15.067 222.688 15.3501 224.425 15.5476C226.154 15.728 228.597 16.1426 229.769 16.4362C231.002 16.7546 231.964 16.7638 232.024 16.4763C232.082 16.1595 232.89 16.2335 234.083 16.6492C236.426 17.4487 239.09 18.0527 239.53 17.8777C239.702 17.8057 239.437 17.5843 238.962 17.3907C238.5 17.202 237.935 16.5321 237.705 15.9132C237.374 14.9838 237.432 14.8086 238.064 14.8252C238.561 14.8579 238.616 15.0364 238.26 15.4584C237.844 15.8849 237.9 15.9926 238.413 15.9181C238.843 15.8382 238.95 15.9243 238.682 16.1274C237.476 16.9973 243.202 18.8645 244.905 18.1688C245.647 17.847 245.707 17.6303 245.307 16.4174C245.001 15.4272 244.795 15.2013 244.59 15.6708C244.372 16.1352 244.265 16.1199 244.185 15.6192C244.097 15.2428 243.901 14.9926 243.695 15.079C243.5 15.1411 242.646 15.0058 241.816 14.7805C241.009 14.5651 239.766 14.271 239.137 14.1422C238.503 14.0256 237.18 13.7553 236.256 13.5488C235.332 13.3423 233.935 13.113 233.204 13.0274L231.847 12.8716L232.742 13.7757C233.317 14.3506 233.381 14.5755 232.914 14.399C232.519 14.2523 232.066 13.7271 231.913 13.2673C231.739 12.6855 231.433 12.4613 231.012 12.5877C230.655 12.6974 229.37 12.5421 228.09 12.2331C226.811 11.9241 225.272 11.7646 224.597 11.8868C223.947 12.0189 223.074 11.9323 222.663 11.7221C221.25 10.9755 220.742 10.9671 220.855 11.6656C220.927 12.1492 220.847 12.1022 220.48 11.4702C220.142 10.836 219.909 10.7124 219.534 10.9708C219.244 11.1933 218.859 11.1638 218.599 10.9302C218.061 10.4409 216.653 10.7605 215.927 11.5289C215.546 11.941 215.488 11.8747 215.7 11.2516C215.904 10.6821 215.742 10.4175 215.188 10.4185C214.739 10.4056 214.025 10.2421 213.55 10.0485C213.075 9.8549 212.75 9.92095 212.783 10.1895C212.934 11.003 211.664 10.982 211.514 10.1685C211.412 9.68718 211.198 9.51492 210.865 9.70534C210.583 9.87416 209.79 9.83449 209.018 9.60467C208.258 9.3798 207.349 9.20758 206.924 9.20463C206.528 9.19944 205.836 9.01652 205.467 8.80902C204.531 8.28529 203.774 8.95583 204.109 10.0146C204.293 10.6428 204.176 10.9641 203.674 11.185C203.148 11.3961 203.046 11.2978 203.26 10.7747C203.969 9.03525 200.985 8.55583 199.744 10.2062C199.098 11.0922 198.925 11.1349 198.558 10.4322C198.332 9.94265 198.334 9.34738 198.59 8.99784C198.9 8.58525 198.741 8.27918 198.047 7.99623C196.879 7.51968 196.302 8.37689 197.298 9.06694C197.753 9.37994 197.552 9.45417 196.66 9.27475C195.69 9.0777 195.476 8.90543 195.808 8.54423C196.086 8.24608 195.941 7.97426 195.398 7.80946C194.962 7.66005 194.356 7.75343 194.11 8.00788C193.817 8.34253 193.284 8.22414 192.414 7.64233C191.371 6.96172 191.156 6.93094 191.262 7.54161C191.363 8.16444 191.29 8.13465 190.875 7.41205C190.458 6.66016 190.257 6.66365 189.449 7.42654C188.921 7.92057 188.162 8.32028 187.755 8.31012C187.157 8.27913 187.157 8.20837 187.775 7.87843C188.404 7.55345 188.256 7.39384 186.768 6.82968C185.809 6.46681 184.941 6.29731 184.867 6.47977C184.792 6.66223 184.466 6.55749 184.136 6.25268C183.731 5.88878 183.567 5.90716 183.626 6.28572C183.76 7.03565 180.499 6.71288 179.338 5.87043C178.881 5.52813 174.826 4.92416 170.276 4.48753C144.771 2.07293 111.844 0.660669 79.899 0.599519C74.0094 0.595154 67.6662 0.519319 65.7677 0.440244C60.663 0.216884 50.4152 0.4213 50.2762 0.761892C50.2118 0.920023 49.7893 0.946366 49.3484 0.809114C48.5203 0.542307 36.1079 1.04152 34.7973 1.40079C34.3988 1.50781 32.9557 1.60024 31.5545 1.62465C30.1461 1.63193 23.1495 2.18344 15.9425 2.83351C1.99222 4.11005 0.344368 4.53042 0.230847 6.9669C0.101118 9.26908 2.01842 9.82403 7.64174 9.12391C10.3166 8.79607 16.5174 8.24634 21.4892 7.89057C26.461 7.53479 30.4793 7.04553 30.432 6.81343C30.3946 6.55699 30.6944 6.62251 31.1195 6.93775C31.5324 7.24803 32.7713 7.41279 33.8704 7.29357C34.9646 7.18651 36.9253 7.07815 38.2485 7.03612C42.943 6.90776 45.0254 6.84905 49.105 6.69688C60.9993 6.28434 90.9016 6.30688 112.766 6.75415C130.379 7.1133 140.679 7.5826 158.901 8.81452C169.526 9.53006 175.49 9.735 175.644 9.35792C175.768 9.05382 176.101 8.8634 176.332 8.95772Z" fill="#131514"/>
</svg>
