<svg width="449" height="808" viewBox="0 0 449 808" fill="none" xmlns="http://www.w3.org/2000/svg">
<mask id="mask0_1838_70939" style="mask-type:alpha" maskUnits="userSpaceOnUse" x="0" y="0" width="449" height="808">
<rect x="448.002" y="808" width="448" height="808" transform="rotate(-180 448.002 808)" fill="#C4C4C4"/>
</mask>
<g mask="url(#mask0_1838_70939)">
<rect x="432.422" y="1003.63" width="1.26691" height="979.137" transform="rotate(-165 432.422 1003.63)" fill="black"/>
<rect x="425.43" y="1001.75" width="1.26691" height="979.137" transform="rotate(-165 425.43 1001.75)" fill="black"/>
<rect x="418.434" y="999.881" width="1.26691" height="979.137" transform="rotate(-165 418.434 999.881)" fill="black"/>
<rect x="411.441" y="998.007" width="1.26691" height="979.137" transform="rotate(-165 411.441 998.007)" fill="black"/>
<rect x="446.404" y="1007.38" width="1.26691" height="979.137" transform="rotate(-165 446.404 1007.38)" fill="black"/>
<rect x="404.449" y="996.134" width="1.26691" height="979.137" transform="rotate(-165 404.449 996.134)" fill="black"/>
<rect x="439.412" y="1005.5" width="1.26691" height="979.137" transform="rotate(-165 439.412 1005.5)" fill="black"/>
<rect x="397.457" y="994.26" width="1.26691" height="979.137" transform="rotate(-165 397.457 994.26)" fill="black"/>
<rect x="390.461" y="992.386" width="1.26691" height="979.137" transform="rotate(-165 390.461 992.386)" fill="black"/>
<rect x="348.506" y="981.144" width="1.26691" height="979.137" transform="rotate(-165 348.506 981.144)" fill="black"/>
<rect x="383.469" y="990.513" width="1.26691" height="979.137" transform="rotate(-165 383.469 990.513)" fill="black"/>
<rect x="341.514" y="979.271" width="1.26691" height="979.137" transform="rotate(-165 341.514 979.271)" fill="black"/>
<rect x="376.48" y="988.639" width="1.26691" height="979.137" transform="rotate(-165 376.48 988.639)" fill="black"/>
<rect x="334.521" y="977.396" width="1.26691" height="979.137" transform="rotate(-165 334.521 977.396)" fill="black"/>
<rect x="369.488" y="986.765" width="1.26691" height="979.137" transform="rotate(-165 369.488 986.765)" fill="black"/>
<rect x="327.529" y="975.523" width="1.26691" height="979.137" transform="rotate(-165 327.529 975.523)" fill="black"/>
<rect x="362.496" y="984.891" width="1.26691" height="979.137" transform="rotate(-165 362.496 984.891)" fill="black"/>
<rect x="320.535" y="973.649" width="1.26691" height="979.137" transform="rotate(-165 320.535 973.649)" fill="black"/>
<rect x="355.498" y="983.018" width="1.26691" height="979.137" transform="rotate(-165 355.498 983.018)" fill="black"/>
<rect x="313.545" y="971.776" width="1.26691" height="979.137" transform="rotate(-165 313.545 971.776)" fill="black"/>
<rect x="306.553" y="969.901" width="1.26691" height="979.137" transform="rotate(-165 306.553 969.901)" fill="black"/>
<rect x="264.594" y="958.66" width="1.26691" height="979.137" transform="rotate(-165 264.594 958.66)" fill="black"/>
<rect x="299.559" y="968.028" width="1.26691" height="979.137" transform="rotate(-165 299.559 968.028)" fill="black"/>
<rect x="257.6" y="956.786" width="1.26691" height="979.137" transform="rotate(-165 257.6 956.786)" fill="black"/>
<rect x="292.562" y="966.154" width="1.26691" height="979.137" transform="rotate(-165 292.562 966.154)" fill="black"/>
<rect x="250.609" y="954.912" width="1.26691" height="979.137" transform="rotate(-165 250.609 954.912)" fill="black"/>
<rect x="285.57" y="964.281" width="1.26691" height="979.137" transform="rotate(-165 285.57 964.281)" fill="black"/>
<rect x="243.615" y="953.039" width="1.26691" height="979.137" transform="rotate(-165 243.615 953.039)" fill="black"/>
<rect x="278.578" y="962.407" width="1.26691" height="979.137" transform="rotate(-165 278.578 962.407)" fill="black"/>
<rect x="236.623" y="951.164" width="1.26691" height="979.137" transform="rotate(-165 236.623 951.164)" fill="black"/>
<rect x="271.586" y="960.533" width="1.26691" height="979.137" transform="rotate(-165 271.586 960.533)" fill="black"/>
<rect x="229.631" y="949.291" width="1.26691" height="979.137" transform="rotate(-165 229.631 949.291)" fill="black"/>
<rect x="223.545" y="947.66" width="1.26691" height="979.137" transform="rotate(-165 223.545 947.66)" fill="black"/>
<rect x="181.588" y="936.418" width="1.26691" height="979.137" transform="rotate(-165 181.588 936.418)" fill="black"/>
<rect x="216.553" y="945.787" width="1.26691" height="979.137" transform="rotate(-165 216.553 945.787)" fill="black"/>
<rect x="174.59" y="934.544" width="1.26691" height="979.137" transform="rotate(-165 174.59 934.544)" fill="black"/>
<rect x="209.561" y="943.913" width="1.26691" height="979.137" transform="rotate(-165 209.561 943.913)" fill="black"/>
<rect x="167.602" y="932.671" width="1.26691" height="979.137" transform="rotate(-165 167.602 932.671)" fill="black"/>
<rect x="202.564" y="942.039" width="1.26691" height="979.137" transform="rotate(-165 202.564 942.039)" fill="black"/>
<rect x="160.609" y="930.797" width="1.26691" height="979.137" transform="rotate(-165 160.609 930.797)" fill="black"/>
<rect x="195.572" y="940.166" width="1.26691" height="979.137" transform="rotate(-165 195.572 940.166)" fill="black"/>
<rect x="153.617" y="928.923" width="1.26691" height="979.137" transform="rotate(-165 153.617 928.923)" fill="black"/>
<rect x="188.58" y="938.292" width="1.26691" height="979.137" transform="rotate(-165 188.58 938.292)" fill="black"/>
<rect x="146.625" y="927.049" width="1.26691" height="979.137" transform="rotate(-165 146.625 927.049)" fill="black"/>
<rect x="139.629" y="925.176" width="1.26691" height="979.137" transform="rotate(-165 139.629 925.176)" fill="black"/>
<rect x="97.6738" y="913.934" width="1.26691" height="979.137" transform="rotate(-165 97.6738 913.934)" fill="black"/>
<rect x="132.637" y="923.302" width="1.26691" height="979.137" transform="rotate(-165 132.637 923.302)" fill="black"/>
<rect x="90.6816" y="912.06" width="1.26691" height="979.137" transform="rotate(-165 90.6816 912.06)" fill="black"/>
<rect x="125.646" y="921.428" width="1.26691" height="979.137" transform="rotate(-165 125.646 921.428)" fill="black"/>
<rect x="83.6895" y="910.186" width="1.26691" height="979.137" transform="rotate(-165 83.6895 910.186)" fill="black"/>
<rect x="118.654" y="919.555" width="1.26691" height="979.137" transform="rotate(-165 118.654 919.555)" fill="black"/>
<rect x="76.6953" y="908.313" width="1.26691" height="979.137" transform="rotate(-165 76.6953 908.313)" fill="black"/>
<rect x="111.664" y="917.681" width="1.26691" height="979.137" transform="rotate(-165 111.664 917.681)" fill="black"/>
<rect x="69.7031" y="906.439" width="1.26691" height="979.137" transform="rotate(-165 69.7031 906.439)" fill="black"/>
<rect x="104.666" y="915.808" width="1.26691" height="979.137" transform="rotate(-165 104.666 915.808)" fill="black"/>
<rect x="62.7109" y="904.565" width="1.26691" height="979.137" transform="rotate(-165 62.7109 904.565)" fill="black"/>
<rect x="55.7148" y="902.691" width="1.26691" height="979.137" transform="rotate(-165 55.7148 902.691)" fill="black"/>
<rect x="13.7637" y="891.449" width="1.26691" height="979.137" transform="rotate(-165 13.7637 891.449)" fill="black"/>
<rect x="48.7266" y="900.818" width="1.26691" height="979.137" transform="rotate(-165 48.7266 900.818)" fill="black"/>
<rect x="6.76758" y="889.576" width="1.26691" height="979.137" transform="rotate(-165 6.76758 889.576)" fill="black"/>
<rect x="41.7305" y="898.944" width="1.26691" height="979.137" transform="rotate(-165 41.7305 898.944)" fill="black"/>
<rect x="-0.226562" y="887.702" width="1.26691" height="979.137" transform="rotate(-165 -0.226562 887.702)" fill="black"/>
<rect x="34.7383" y="897.07" width="1.26691" height="979.137" transform="rotate(-165 34.7383 897.07)" fill="black"/>
<rect x="-7.21875" y="885.828" width="1.26691" height="979.137" transform="rotate(-165 -7.21875 885.828)" fill="black"/>
<rect x="27.748" y="895.196" width="1.26691" height="979.137" transform="rotate(-165 27.748 895.196)" fill="black"/>
<rect x="-14.209" y="883.954" width="1.26691" height="979.137" transform="rotate(-165 -14.209 883.954)" fill="black"/>
<rect x="20.7559" y="893.323" width="1.26691" height="979.137" transform="rotate(-165 20.7559 893.323)" fill="black"/>
<rect x="-21.2031" y="882.081" width="1.26691" height="979.137" transform="rotate(-165 -21.2031 882.081)" fill="black"/>
<rect x="-28.1953" y="880.207" width="1.26691" height="979.137" transform="rotate(-165 -28.1953 880.207)" fill="black"/>
<rect x="-70.1543" y="868.965" width="1.26691" height="979.137" transform="rotate(-165 -70.1543 868.965)" fill="black"/>
<rect x="-35.1875" y="878.333" width="1.26691" height="979.137" transform="rotate(-165 -35.1875 878.333)" fill="black"/>
<rect x="-77.1426" y="867.091" width="1.26691" height="979.137" transform="rotate(-165 -77.1426 867.091)" fill="black"/>
<rect x="-42.1797" y="876.459" width="1.26691" height="979.137" transform="rotate(-165 -42.1797 876.459)" fill="black"/>
<rect x="-84.1387" y="865.217" width="1.26691" height="979.137" transform="rotate(-165 -84.1387 865.217)" fill="black"/>
<rect x="-49.1719" y="874.586" width="1.26691" height="979.137" transform="rotate(-165 -49.1719 874.586)" fill="black"/>
<rect x="-91.1309" y="863.344" width="1.26691" height="979.137" transform="rotate(-165 -91.1309 863.344)" fill="black"/>
<rect x="-56.1699" y="872.712" width="1.26691" height="979.137" transform="rotate(-165 -56.1699 872.712)" fill="black"/>
<rect x="-98.123" y="861.47" width="1.26691" height="979.137" transform="rotate(-165 -98.123 861.47)" fill="black"/>
<rect x="-63.1621" y="870.838" width="1.26691" height="979.137" transform="rotate(-165 -63.1621 870.838)" fill="black"/>
<rect x="-105.115" y="859.596" width="1.26691" height="979.137" transform="rotate(-165 -105.115 859.596)" fill="black"/>
<rect x="-112.107" y="857.722" width="1.26691" height="979.137" transform="rotate(-165 -112.107 857.722)" fill="black"/>
<rect x="-154.066" y="846.48" width="1.26691" height="979.137" transform="rotate(-165 -154.066 846.48)" fill="black"/>
<rect x="-119.105" y="855.849" width="1.26691" height="979.137" transform="rotate(-165 -119.105 855.849)" fill="black"/>
<rect x="-161.057" y="844.606" width="1.26691" height="979.137" transform="rotate(-165 -161.057 844.606)" fill="black"/>
<rect x="-126.098" y="853.975" width="1.26691" height="979.137" transform="rotate(-165 -126.098 853.975)" fill="black"/>
<rect x="-168.053" y="842.733" width="1.26691" height="979.137" transform="rotate(-165 -168.053 842.733)" fill="black"/>
<rect x="-133.09" y="852.101" width="1.26691" height="979.137" transform="rotate(-165 -133.09 852.101)" fill="black"/>
<rect x="-175.045" y="840.859" width="1.26691" height="979.137" transform="rotate(-165 -175.045 840.859)" fill="black"/>
<rect x="-140.078" y="850.227" width="1.26691" height="979.137" transform="rotate(-165 -140.078 850.227)" fill="black"/>
<rect x="-182.039" y="838.985" width="1.26691" height="979.137" transform="rotate(-165 -182.039 838.985)" fill="black"/>
<rect x="-147.07" y="848.354" width="1.26691" height="979.137" transform="rotate(-165 -147.07 848.354)" fill="black"/>
<rect x="-189.031" y="837.112" width="1.26691" height="979.137" transform="rotate(-165 -189.031 837.112)" fill="black"/>
<rect x="-196.023" y="835.238" width="1.26691" height="979.137" transform="rotate(-165 -196.023 835.238)" fill="black"/>
<rect x="-237.98" y="823.995" width="1.26691" height="979.137" transform="rotate(-165 -237.98 823.995)" fill="black"/>
<rect x="-203.014" y="833.364" width="1.26691" height="979.137" transform="rotate(-165 -203.014 833.364)" fill="black"/>
<rect x="-244.973" y="822.122" width="1.26691" height="979.137" transform="rotate(-165 -244.973 822.122)" fill="black"/>
<rect x="-210.006" y="831.49" width="1.26691" height="979.137" transform="rotate(-165 -210.006 831.49)" fill="black"/>
<rect x="-251.967" y="820.248" width="1.26691" height="979.137" transform="rotate(-165 -251.967 820.248)" fill="black"/>
<rect x="-217.004" y="829.617" width="1.26691" height="979.137" transform="rotate(-165 -217.004 829.617)" fill="black"/>
<rect x="-223.996" y="827.743" width="1.26691" height="979.137" transform="rotate(-165 -223.996 827.743)" fill="black"/>
<rect x="-230.988" y="825.869" width="1.26691" height="979.137" transform="rotate(-165 -230.988 825.869)" fill="black"/>
</g>
</svg>
