<svg width="130" height="108" viewBox="0 0 130 108" fill="none" xmlns="http://www.w3.org/2000/svg">
<path d="M-2.3771 106.586C-2.11719 96.8564 3.87287 86.5254 14.6054 85.1165C22.8203 84.0381 31.6231 88.3169 38.0937 92.6814C39.1616 93.4018 47.7532 99.6175 42.5262 101.513C32.9684 104.978 25.2769 97.935 22.378 89.3237C18.0707 76.5289 22.0897 63.4217 31.2373 53.7295C42.5852 41.7059 62.5856 30.2778 79.1712 37.4234C86.9051 40.7555 90.8774 45.6688 93.4578 53.4744C95.5119 59.6885 96.872 67.5383 91.8535 73.0021C83.5944 81.9943 72.6646 74.2976 67.593 66.1859C57.3161 49.7488 63.2217 25.6766 79.7684 15.745C94.2822 7.03369 111.417 3.34038 128.024 1.30655" stroke="black" stroke-width="2" stroke-linecap="round"/>
</svg>
