<svg width="146" height="312" viewBox="0 0 146 312" fill="none" xmlns="http://www.w3.org/2000/svg">
<path d="M17.0499 112.432L0.483747 126.704C0.0651494 127.134 -0.0968707 127.753 0.0572381 128.334C0.211347 128.914 0.658846 129.371 1.23525 129.535L14.622 131.969C16.7444 132.35 17.661 129.088 15.5221 128.699L2.12715 126.265C2.38316 127.209 2.63091 128.153 2.87866 129.105L19.4448 114.833C21.0965 113.409 18.6933 111.017 17.0499 112.432Z" fill="#10100E"/>
<path d="M125.029 6.47727C131.83 8.25803 138.057 11.6105 143.221 16.2714C144.077 17.0369 145.408 15.7188 144.545 14.9471C139.15 10.0713 132.646 6.55865 125.541 4.68359C124.416 4.37898 123.913 6.16297 125.042 6.46435L125.029 6.47727Z" fill="#10100E"/>
<path d="M128.452 292.429L112.866 301.428C111.713 302.094 112.709 303.828 113.866 303.16L129.452 294.161C130.61 293.493 129.61 291.761 128.452 292.429Z" fill="#10100E"/>
<path d="M118.029 290.371L126.525 305.087C127.193 306.244 128.925 305.244 128.257 304.087L119.761 289.371C119.09 288.21 117.358 289.21 118.029 290.371Z" fill="#10100E"/>
</svg>
