<svg width="274" height="17" viewBox="0 0 274 17" fill="none" xmlns="http://www.w3.org/2000/svg">
<path opacity="0.827996" fill-rule="evenodd" clip-rule="evenodd" d="M273.159 13.1601C273.03 13.7031 270.149 14.7423 269.84 14.3713C269.674 14.1716 269.262 14.1087 268.913 14.2326C268.22 14.4587 265.081 14.3938 262.119 14.0957C261.11 13.9833 258.245 13.857 255.714 13.7982C253.183 13.7394 249.355 13.6263 247.119 13.5454C244.938 13.489 242.634 13.4378 242.065 13.4638C241.297 13.4888 241.168 13.3896 241.523 13.0491C241.799 12.7819 241.574 12.832 241.041 13.1532C240.493 13.471 239.937 13.5689 239.802 13.3652C239.645 13.1905 239.236 13.1168 238.873 13.2373C238.523 13.3612 236.689 13.3865 234.76 13.2978C232.842 13.2233 230.676 13.1702 229.908 13.1953C229.172 13.2163 226.722 13.1996 224.525 13.1507C216.563 12.9901 209.628 12.9345 203.913 13.0063C200.719 13.0432 197.763 13.0444 197.418 13.0203C197.045 12.9894 196.357 12.9989 195.925 13.0229C194.002 13.165 181.947 13.3677 180.735 13.2763C179.987 13.2144 179.142 13.2442 178.83 13.3423C177.441 13.7367 171.998 13.6893 171.12 13.2757C170.087 12.8138 169.448 11.5165 170.343 11.7278C170.646 11.7994 170.778 11.693 170.642 11.4315C170.273 10.6681 182.144 9.82571 183.382 10.5193C183.758 10.7342 183.97 10.7385 183.867 10.5307C183.651 10.0899 204.221 9.44471 204.76 9.87019C205.018 10.0687 205.319 10.0825 205.541 9.91711C205.892 9.6561 219.554 9.48887 227.79 9.64558C229.563 9.686 232.691 9.66801 234.758 9.62862C236.826 9.57837 239.031 9.66334 239.68 9.81671C240.344 9.9735 241.052 9.94568 241.293 9.76195C241.535 9.57821 242.02 9.58955 242.398 9.79357C242.774 10.0085 243.115 9.9857 243.171 9.74681C243.222 9.52963 243.56 9.51774 243.951 9.73603C244.326 9.95091 244.784 10.0131 244.969 9.87347C245.155 9.73381 246.683 9.7163 248.392 9.83336C250.089 9.93617 252.46 10.0261 253.682 10.0164C258.453 10.0081 262.558 10.3013 263.045 10.6915C263.377 10.9647 263.453 10.9023 263.243 10.4975C263.028 10.0567 263.173 10.0223 263.743 10.3174C264.174 10.5568 264.572 10.6163 264.61 10.4534C264.651 10.2796 265.459 10.1494 266.434 10.1503C267.406 10.1622 269.205 10.4151 270.485 10.7401C272.526 11.2567 272.76 11.4266 272.555 12.1691C272.432 12.6218 272.536 12.9559 272.779 12.8984C273.064 12.8512 273.207 12.9538 273.159 13.1601ZM207.21 3.2916C208.792 3.143 209.29 3.26067 208.766 3.64694C208.55 3.83896 207.847 3.86729 207.22 3.70697C206.141 3.42787 206.146 3.40486 207.21 3.2916ZM214.063 1.48157C214.327 1.54386 214.035 1.73008 213.37 1.92526C212.725 2.10091 212.145 2.13392 212.026 1.98427C211.799 1.69993 213.342 1.32349 214.063 1.48157ZM227.432 3.0809C227.71 3.14665 228.265 3.48412 228.638 3.80306C228.997 4.11854 229.085 4.33376 228.792 4.26454C228.528 4.20225 227.956 3.87283 227.583 3.55388C227.224 3.2384 227.153 3.01515 227.432 3.0809ZM233.059 3.4768C233.645 3.7487 234.291 3.82849 234.487 3.65602C234.714 3.47897 235.072 3.40556 235.38 3.47823C235.658 3.54399 235.473 3.80391 234.999 4.04409C233.904 4.55082 232.61 4.33026 232.267 3.55686C232.067 3.15748 232.306 3.12886 233.059 3.4768ZM194.298 3.88193C194.603 3.95402 194.666 4.13998 194.441 4.31468C194.233 4.48201 194.393 4.71359 194.814 4.81316C195.847 5.05694 196.479 4.52255 195.714 4.05697C195.391 3.86662 195.949 3.90729 196.938 4.14077C198.988 4.62488 200.082 4.73519 201.083 4.52706C201.485 4.45098 201.996 4.56035 202.307 4.80468C202.659 5.0701 202.744 5.03329 202.571 4.66187C202.186 3.88715 204.262 3.35165 204.956 4.05128C205.328 4.42416 206.265 4.4859 208.17 4.28605C210.962 3.9654 212.242 4.07373 212.619 4.68703C212.895 5.13989 214.672 5.09215 214.781 4.62797C214.827 4.43366 214.671 4.2487 214.366 4.17659C214.104 4.11479 213.992 3.74631 214.135 3.33561C214.321 2.8096 214.547 2.76052 214.944 3.16185C215.241 3.46015 215.407 3.86395 215.295 4.07691C214.802 4.92924 216.192 4.96101 217.034 4.12289L217.943 3.1979L218.718 4.33815C219.139 4.96175 219.526 5.26985 219.58 5.04316C219.636 4.80567 220.086 4.71829 220.61 4.8419C222.049 5.18181 222.444 4.80789 221.683 3.80749C220.816 2.66824 221.34 2.72364 222.311 3.87613C223.096 4.77938 225.484 5.45727 227.005 5.18973C227.565 5.094 227.768 4.94826 227.436 4.8585C227.104 4.76873 226.788 4.42039 226.702 4.06957C226.602 3.64711 226.785 3.58773 227.316 3.87276C227.883 4.20048 228.037 4.13422 227.909 3.6367C227.816 3.25006 228.038 2.96055 228.458 2.93451C228.923 2.91877 229.07 3.20433 228.872 3.71611C228.392 4.97029 228.682 5.56299 229.728 5.42257C230.251 5.35236 231.701 5.38708 232.912 5.52485C234.14 5.65526 235.457 5.60167 235.831 5.38231C236.186 5.18111 236.832 5.17418 237.173 5.35717C237.513 5.54016 238.065 5.54502 238.322 5.3664C238.657 5.11515 238.878 5.15586 239.042 5.50225C239.211 5.82706 239.727 5.91484 240.756 5.78179C241.819 5.63401 242.333 5.73259 242.669 6.13098C243.031 6.54703 243.179 6.57057 243.261 6.22514C243.319 5.97686 243.746 5.86102 244.211 5.97089C244.676 6.08076 246.689 6.20277 248.642 6.25364C250.582 6.29027 253.362 6.47943 254.718 6.65154C256.147 6.84082 257.204 6.78283 257.202 6.53161C257.191 6.25537 258.094 6.26363 259.503 6.53927C262.264 7.06601 265.331 7.40283 265.773 7.22223C265.944 7.14862 265.601 6.97643 265.034 6.84252C264.481 6.71205 263.702 6.17484 263.302 5.65869C262.718 4.88251 262.739 4.72795 263.437 4.69894C263.991 4.69301 264.094 4.84265 263.803 5.22981C263.449 5.62482 263.535 5.71363 264.08 5.61447C264.533 5.5163 264.671 5.58302 264.426 5.77587C263.309 6.60617 270.037 7.81901 271.741 7.10446C272.478 6.77713 272.492 6.58675 271.765 5.57162C271.194 4.74147 270.914 4.56142 270.8 4.97898C270.671 5.39311 270.55 5.38723 270.343 4.96234C270.157 4.64489 269.883 4.44325 269.678 4.53159C269.478 4.59833 268.509 4.54052 267.544 4.4037C266.607 4.27376 265.173 4.10607 264.453 4.03842C263.729 3.98157 262.212 3.83989 261.15 3.72566C260.087 3.61142 258.499 3.50998 257.676 3.4865L256.151 3.44541L257.348 4.1612C258.115 4.61598 258.239 4.80487 257.684 4.6852C257.217 4.58612 256.594 4.16568 256.317 3.78102C255.987 3.29283 255.598 3.12113 255.166 3.25855C254.801 3.37733 253.353 3.33182 251.876 3.15383C250.398 2.97584 248.671 2.9441 247.96 3.09528C247.278 3.25333 246.299 3.23869 245.798 3.08614C244.069 2.54116 243.51 2.56868 243.8 3.16138C243.995 3.57205 243.896 3.53722 243.343 3.01912C242.821 2.4971 242.535 2.40684 242.185 2.65466C241.921 2.86566 241.491 2.86668 241.15 2.6837C240.443 2.30005 238.973 2.67112 238.361 3.38116C238.041 3.76145 237.961 3.70847 238.045 3.15843C238.133 2.655 237.893 2.43864 237.285 2.47745C236.789 2.49712 235.966 2.40544 235.399 2.27153C234.832 2.13763 234.491 2.21665 234.591 2.44529C234.95 3.13416 233.552 3.20297 233.193 2.5141C232.967 2.10736 232.691 1.97392 232.371 2.1604C232.102 2.3248 231.222 2.34499 230.32 2.20032C229.433 2.05909 228.394 1.97331 227.927 1.99984C227.492 2.02245 226.689 1.91261 226.234 1.75956C225.082 1.3735 224.412 2.00161 225.031 2.88868C225.382 3.41611 225.331 3.70021 224.832 3.92449C224.305 4.1419 224.17 4.06438 224.28 3.6002C224.644 2.05654 221.255 1.84879 220.286 3.35227C219.789 4.15798 219.609 4.20657 219.039 3.62763C218.674 3.22238 218.534 2.71062 218.732 2.39266C218.974 2.01679 218.727 1.76461 217.898 1.5689C216.503 1.23929 216.074 2.01556 217.331 2.54047C217.904 2.77839 217.702 2.85593 216.68 2.76279C215.569 2.65985 215.293 2.52641 215.571 2.19322C215.805 1.91794 215.582 1.69421 214.946 1.58976C214.432 1.49117 213.79 1.61292 213.581 1.84845C213.339 2.15612 212.725 2.09091 211.632 1.65039C210.326 1.13677 210.083 1.12502 210.344 1.64265C210.603 2.17107 210.516 2.15047 209.889 1.5578C209.252 0.940106 209.033 0.95681 208.328 1.66784C207.866 2.12862 207.128 2.52415 206.678 2.54333C206.015 2.55761 205.998 2.49677 206.597 2.17091C207.211 1.8485 207.01 1.72143 205.244 1.33837C204.105 1.09216 203.112 1.00588 203.074 1.1678C203.035 1.32972 202.652 1.26205 202.218 1.02264C201.686 0.737607 201.511 0.764609 201.666 1.08598C201.991 1.72137 198.336 1.66721 196.861 1.0226C196.278 0.759653 191.684 0.518143 186.588 0.454297C158.024 0.125014 121.555 1.16535 86.4841 3.29976C80.0198 3.69921 73.0408 4.06829 70.9387 4.13029C65.2837 4.28778 54.0865 5.16505 54.0151 5.46731C53.982 5.60764 53.5247 5.6592 53.0082 5.57141C52.0359 5.39878 38.5336 6.67761 37.1808 7.07615C36.7689 7.19541 35.2072 7.37366 33.6754 7.49056C32.1316 7.59324 24.5849 8.54626 16.8307 9.59841C1.82568 11.6507 0.11739 12.1248 0.572632 14.2268C0.978127 16.2144 3.21421 16.5601 9.21855 15.5734C12.0758 15.1085 18.7497 14.2115 24.121 13.5653C29.4924 12.9191 33.7856 12.2235 33.6785 12.0273C33.5764 11.8094 33.921 11.8452 34.4625 12.087C34.9895 12.3255 36.3882 12.3823 37.566 12.2045C38.7412 12.0376 40.8671 11.8103 42.3091 11.6835C47.4303 11.2518 49.7015 11.0588 54.1422 10.6487C67.0967 9.47985 99.9163 7.4521 124.016 6.3397C143.43 5.4426 154.844 5.14086 175.135 4.9522C186.965 4.83983 193.558 4.60768 193.637 4.27304C193.701 4.00316 194.021 3.81669 194.298 3.88193Z" fill="#131514"/>
</svg>
