<svg width="112" height="293" viewBox="0 0 112 293" fill="none" xmlns="http://www.w3.org/2000/svg">
<path d="M13.5399 291.32L22.1554 278.668C22.3605 278.302 22.3579 277.854 22.1485 277.489C21.9392 277.125 21.5539 276.897 21.1343 276.89L11.642 277.67C10.1379 277.797 10.1091 280.168 11.6258 280.044L21.1237 279.263C20.7796 278.671 20.4411 278.078 20.1011 277.479L11.4856 290.13C10.6268 291.392 12.6851 292.574 13.5399 291.32Z" fill="#10100E"/>
<path d="M88.5311 155.878C95.4266 151.845 103.124 149.535 111.019 149.13C112.322 149.057 112.332 146.929 111.019 147.002C102.766 147.419 94.7173 149.823 87.5017 154.025C86.353 154.684 87.3824 156.522 88.5311 155.857V155.878Z" fill="#10100E"/>
<path d="M16.3852 3.72442C9.99544 -0.392774 1.24593 4.68006 0.11968 12.1738C-1.09851 20.2888 7.22195 25.7518 14.2093 24.9157C21.9551 23.9839 26.9275 15.0806 24.2843 7.49919C21.641 -0.0821929 12.2403 -2.27219 6.34087 2.57766C4.75493 3.87573 6.99211 6.16926 8.55507 4.87915C12.9988 1.23181 20.1317 3.65275 21.5797 9.36268C23.0278 15.0726 19.0897 21.3559 13.2976 21.7382C8.76959 22.0408 3.16132 18.927 3.15366 13.6471C3.15366 7.86551 10.0491 3.47755 14.8222 6.53559C16.5461 7.64253 18.1167 4.82341 16.4005 3.72442H16.3852Z" fill="#10100E"/>
</svg>
